<svg xmlns="http://www.w3.org/2000/svg" viewBox="0 0 512 512" width="100%" height="100%">
  <rect width="512" height="512" rx="128" fill="#00204E"/>
  <path d="M 128 150 
           C 128 120, 140 110, 170 110 
           L 342 110 
           C 372 110, 384 120, 384 150 
           C 384 180, 372 190, 342 190
           L 286 190
           L 310 190
           L 286 190
           L 286 320
           C 286 350, 274 360, 256 360
           C 238 360, 226 350, 226 320
           L 226 190
           L 170 190
           C 140 190, 128 180, 128 150 Z" 
        fill="#FFFFFF" />
  <circle cx="176" cy="415" r="28" fill="#00D05A"/>
  <circle cx="256" cy="415" r="28" fill="#00D05A"/>
  <circle cx="336" cy="415" r="28" fill="#00D05A"/>
</svg>
